<?xml version="1.0" encoding="UTF-8" standalone="no"?>
<!DOCTYPE svg PUBLIC "-//W3C//DTD SVG 1.1//EN" "http://www.w3.org/Graphics/SVG/1.1/DTD/svg11.dtd">
<svg xmlns="http://www.w3.org/2000/svg" version="1.1" viewBox="0.00 0.00 1448.00 1448.00">
<g stroke-width="2.00" fill="none" stroke-linecap="butt">
<path stroke="#b180b2" vector-effect="non-scaling-stroke" d="
  M 328.66 1118.34
  C 412.88 1202.30 520.29 1257.34 638.03 1275.39
  C 708.31 1286.17 780.56 1284.33 849.82 1267.60
  Q 926.93 1248.98 996.96 1211.04
  C 1140.28 1133.42 1244.11 985.24 1272.21 824.94
  Q 1280.45 777.94 1281.00 737.75
  Q 1281.86 675.88 1268.66 609.57
  C 1242.99 480.52 1170.05 364.59 1066.34 283.68
  C 992.11 225.77 903.69 188.72 811.00 173.24
  C 718.45 157.78 622.19 168.00 534.98 199.72
  Q 372.40 258.85 270.54 398.28
  C 254.99 419.57 241.30 440.83 230.02 463.71
  Q 218.80 486.46 209.54 508.56
  C 169.43 604.35 158.28 710.82 173.81 813.20
  Q 200.75 990.81 328.66 1118.34"
/>
<path stroke="#b180b2" vector-effect="non-scaling-stroke" d="
  M 933.44 387.56
  Q 986.61 438.70 1031.49 502.75
  Q 1031.79 503.17 1031.36 503.47
  Q 1004.51 522.22 982.63 546.57
  A 0.69 0.68 -41.1 0 1 981.55 546.50
  C 968.03 526.58 953.17 507.53 936.83 489.80
  Q 877.45 425.37 810.60 368.65
  Q 782.46 344.77 743.57 312.68
  Q 704.63 280.55 669.42 242.08
  Q 668.02 240.55 666.50 240.75
  C 532.59 257.89 413.61 325.76 332.15 434.39
  Q 323.47 445.97 316.06 458.86
  A 0.40 0.40 0.0 0 0 316.39 459.46
  C 350.82 460.27 385.10 455.39 418.52 447.40
  Q 432.22 444.13 442.01 438.27
  Q 469.23 422.00 496.72 406.20
  C 541.19 380.63 589.02 361.45 638.26 347.29
  Q 647.12 344.74 656.27 343.12
  Q 656.86 343.01 656.67 343.58
  C 655.63 346.68 653.72 348.89 653.98 352.74
  Q 654.10 354.46 654.87 357.79
  Q 660.68 382.65 666.48 407.84
  A 0.64 0.63 74.7 0 1 666.07 408.58
  C 613.85 426.38 562.69 447.02 517.31 473.07
  Q 500.41 482.77 483.41 492.31
  C 445.82 513.40 404.79 523.55 362.00 526.72
  C 333.99 528.79 306.20 528.34 278.45 527.89
  Q 277.64 527.88 277.33 528.62
  Q 227.47 650.55 241.15 780.67
  C 246.04 827.22 258.42 872.93 276.16 916.20
  Q 276.39 916.76 276.80 916.32
  C 300.14 891.63 323.44 865.78 329.74 831.00
  Q 332.33 816.65 334.79 786.31
  Q 337.63 751.32 340.55 716.34
  C 343.42 681.98 349.91 648.29 361.10 615.59
  A 0.54 0.53 18.6 0 1 361.78 615.26
  Q 391.45 625.03 421.63 633.11
  Q 422.09 633.23 422.00 633.70
  C 415.75 665.23 411.10 697.21 408.87 729.29
  C 405.46 778.30 405.02 827.87 385.96 873.48
  Q 384.61 876.71 383.77 877.52
  Q 368.73 892.01 351.78 904.12
  C 331.91 918.29 311.40 931.57 290.02 943.82
  Q 289.87 943.90 289.94 944.05
  L 296.08 958.41
  A 1.47 1.46 60.2 0 0 298.30 959.02
  Q 348.57 922.00 398.42 883.70
  Q 405.51 878.25 412.87 874.63
  Q 414.32 873.91 415.44 875.08
  C 427.78 888.04 439.23 901.01 453.74 912.25
  C 461.36 918.15 456.60 926.55 450.47 931.20
  Q 393.38 974.51 336.52 1017.53
  A 0.76 0.76 0.0 0 0 336.37 1018.60
  Q 429.09 1140.45 574.30 1188.68
  C 583.53 1191.74 592.62 1194.11 602.04 1196.33
  A 0.82 0.81 -89.1 0 0 603.02 1195.37
  C 597.38 1167.74 587.84 1140.61 569.98 1118.37
  Q 565.38 1112.64 556.46 1103.64
  C 535.63 1082.63 513.50 1062.92 491.77 1042.86
  C 466.54 1019.56 444.82 992.89 422.37 967.03
  Q 422.07 966.69 422.46 966.45
  C 434.12 959.39 449.84 952.49 463.52 951.79
  C 492.17 950.33 527.33 980.84 546.04 999.72
  Q 562.03 1015.86 601.68 1051.95
  Q 611.45 1060.85 616.07 1065.82
  C 652.45 1104.91 668.29 1156.25 676.53 1207.91
  Q 676.60 1208.34 677.02 1208.46
  L 686.75 1211.05
  A 0.90 0.90 0.0 0 0 687.84 1210.44
  Q 693.36 1192.15 701.50 1174.60
  C 723.05 1128.17 750.67 1084.59 793.85 1055.39
  Q 808.08 1045.77 822.95 1037.20
  Q 870.37 1009.87 919.76 986.32
  C 932.29 980.34 994.82 951.40 1006.03 958.96
  C 1025.44 972.06 1050.04 989.89 1074.52 1008.39
  Q 1075.22 1008.92 1074.35 1009.05
  Q 1064.19 1010.60 1054.02 1012.14
  C 1009.12 1018.92 962.66 1040.35 918.63 1063.58
  Q 889.25 1079.07 859.98 1094.77
  C 841.35 1104.77 824.64 1116.37 810.31 1132.07
  C 790.93 1153.32 775.31 1181.10 763.41 1208.03
  A 0.96 0.96 0.0 0 0 764.38 1209.37
  C 873.24 1199.29 979.32 1155.27 1057.98 1078.99
  Q 1086.00 1051.82 1111.77 1020.77
  A 1.06 1.05 -52.2 0 0 1111.58 1019.24
  L 981.72 925.26
  A 0.55 0.55 0.0 0 1 981.66 924.43
  Q 1004.57 901.69 1024.47 876.27
  A 1.87 1.86 -57.7 0 1 1026.77 875.75
  Q 1031.97 878.36 1037.10 881.89
  Q 1093.02 920.39 1149.21 959.88
  A 0.42 0.42 0.0 0 0 1149.82 959.74
  C 1221.50 830.81 1228.73 671.20 1172.32 535.12
  A 0.40 0.40 0.0 0 0 1171.61 535.06
  C 1135.67 590.43 1107.83 650.21 1106.86 717.56
  Q 1106.61 735.10 1106.21 791.11
  C 1106.09 808.96 1104.80 826.70 1096.64 842.93
  C 1089.19 857.76 1074.72 872.73 1062.51 884.26
  A 0.95 0.94 38.0 0 1 1061.38 884.39
  L 1048.59 877.00
  Q 1048.09 876.71 1047.59 877.00
  L 1042.11 880.18
  A 0.13 0.13 0.0 0 1 1041.91 880.07
  C 1041.08 843.03 1038.43 807.40 1036.62 771.01
  C 1035.21 742.52 1036.15 713.32 1039.45 685.00
  C 1046.87 621.13 1071.65 560.39 1106.52 505.54
  Q 1120.16 484.08 1134.05 462.62
  Q 1134.33 462.19 1134.04 461.76
  Q 1121.19 442.29 1108.78 425.72
  C 1026.93 316.50 900.69 253.39 766.58 237.73
  Q 765.71 237.63 766.16 238.38
  Q 766.32 238.63 766.58 239.10
  Q 766.78 239.48 767.10 239.75
  C 823.48 288.20 880.71 336.86 933.44 387.56"
/>
<path stroke="#b180b2" vector-effect="non-scaling-stroke" d="
  M 653.27 902.56
  L 631.21 924.69
  A 0.34 0.33 68.6 0 1 630.64 924.44
  C 631.91 880.72 631.74 838.62 631.12 774.89
  Q 631.11 774.41 630.64 774.48
  Q 628.26 774.83 626.45 776.45
  Q 600.93 799.33 575.18 821.78
  A 1.17 1.16 -26.4 0 0 574.80 822.90
  Q 578.69 841.99 581.03 861.50
  Q 589.67 933.21 590.42 1007.29
  Q 590.43 1008.18 591.12 1007.62
  L 720.71 903.82
  A 1.23 1.22 -44.8 0 1 722.24 903.82
  L 849.99 1006.47
  A 0.35 0.34 20.4 0 0 850.55 1006.22
  C 852.05 945.05 856.80 884.12 866.87 823.74
  C 867.07 822.54 866.89 821.75 866.00 820.98
  Q 839.00 797.50 813.28 772.85
  A 0.64 0.63 22.0 0 0 812.20 773.30
  L 811.43 918.14
  Q 811.43 918.67 810.92 918.81
  Q 808.15 919.57 806.17 918.34
  C 802.89 916.32 790.19 906.97 789.91 902.19
  C 789.63 897.47 789.16 892.56 789.14 887.92
  Q 788.89 813.34 788.91 738.71
  A 1.50 1.50 0.0 0 1 789.21 737.81
  Q 810.49 710.35 830.96 682.29
  C 832.63 680.01 833.95 677.21 835.40 674.66
  Q 835.67 674.19 836.16 674.43
  C 892.40 701.73 937.41 719.37 1006.95 748.28
  Q 1013.53 751.01 1017.93 752.27
  Q 1018.86 752.54 1018.28 751.77
  Q 1002.73 731.28 986.44 714.56
  Q 938.68 665.56 904.81 629.69
  Q 899.23 623.78 883.78 608.97
  A 1.09 1.09 0.0 0 1 883.45 608.19
  L 884.32 487.51
  Q 884.33 486.77 883.73 487.22
  Q 866.10 500.52 854.70 507.70
  C 803.95 539.72 766.71 563.43 724.14 593.37
  A 0.88 0.87 -46.0 0 1 723.15 593.39
  L 560.60 487.25
  Q 559.94 486.82 559.94 487.60
  L 559.47 609.85
  Q 559.47 610.32 559.13 610.65
  C 514.67 655.10 471.28 700.61 427.24 745.49
  C 426.23 746.52 424.44 748.16 424.15 749.80
  C 423.76 751.97 426.08 753.32 428.01 752.51
  Q 518.25 714.55 608.46 676.56
  A 0.34 0.33 60.4 0 1 608.86 676.68
  L 653.46 738.12
  A 2.83 2.81 -63.2 0 1 654.00 739.78
  L 654.00 900.78
  Q 654.00 901.82 653.27 902.56"
/>
<path stroke="#b180b2" vector-effect="non-scaling-stroke" d="
  M 639.19 599.56
  Q 681.92 637.30 722.91 668.98
  Q 723.34 669.31 723.75 668.96
  Q 758.32 639.82 792.58 610.33
  Q 802.17 602.07 810.91 592.91
  Q 811.36 592.43 811.29 592.17
  A 0.73 0.73 0.0 0 0 810.26 591.70
  C 779.35 606.96 751.16 626.24 723.56 646.56
  A 1.14 1.14 0.0 0 1 722.19 646.55
  Q 679.20 614.21 634.44 584.36
  A 1.12 1.11 32.5 0 0 632.87 584.70
  L 630.07 589.27
  Q 629.81 589.70 630.12 590.09
  Q 633.67 594.69 639.19 599.56"
/>
</g>
<path fill="#ffffff" d="
  M 406.89 1381.81
  C 226.62 1382.47 77.08 1242.42 66.71 1062.43
  C 66.03 1050.64 66.02 1036.70 66.02 1023.94
  Q 65.98 731.47 66.01 439.01
  C 66.02 424.44 65.75 406.39 66.46 390.33
  C 74.10 215.77 213.41 75.87 387.17 66.62
  C 396.27 66.14 407.17 66.01 417.08 66.01
  Q 715.33 65.98 1013.58 66.01
  C 1026.64 66.01 1043.86 65.72 1058.69 66.48
  C 1241.03 75.85 1381.82 224.26 1381.90 407.06
  Q 1382.04 722.15 1382.05 1037.25
  Q 1382.05 1037.44 1381.98 1037.61
  Q 1381.87 1037.89 1381.88 1038.19
  Q 1382.52 1152.23 1316.62 1242.85
  C 1257.07 1324.76 1162.96 1375.68 1061.08 1381.38
  C 1051.94 1381.89 1041.07 1381.99 1031.17 1381.99
  Q 719.46 1382.01 407.75 1382.00
  Q 407.57 1382.00 407.44 1381.96
  Q 406.89 1381.81 406.89 1381.81
  Z
  M 328.66 1118.34
  C 412.88 1202.30 520.29 1257.34 638.03 1275.39
  C 708.31 1286.17 780.56 1284.33 849.82 1267.60
  Q 926.93 1248.98 996.96 1211.04
  C 1140.28 1133.42 1244.11 985.24 1272.21 824.94
  Q 1280.45 777.94 1281.00 737.75
  Q 1281.86 675.88 1268.66 609.57
  C 1242.99 480.52 1170.05 364.59 1066.34 283.68
  C 992.11 225.77 903.69 188.72 811.00 173.24
  C 718.45 157.78 622.19 168.00 534.98 199.72
  Q 372.40 258.85 270.54 398.28
  C 254.99 419.57 241.30 440.83 230.02 463.71
  Q 218.80 486.46 209.54 508.56
  C 169.43 604.35 158.28 710.82 173.81 813.20
  Q 200.75 990.81 328.66 1118.34
  Z"
/>
<path fill="#620065" d="
  M 328.66 1118.34
  Q 200.75 990.81 173.81 813.20
  C 158.28 710.82 169.43 604.35 209.54 508.56
  Q 218.80 486.46 230.02 463.71
  C 241.30 440.83 254.99 419.57 270.54 398.28
  Q 372.40 258.85 534.98 199.72
  C 622.19 168.00 718.45 157.78 811.00 173.24
  C 903.69 188.72 992.11 225.77 1066.34 283.68
  C 1170.05 364.59 1242.99 480.52 1268.66 609.57
  Q 1281.86 675.88 1281.00 737.75
  Q 1280.45 777.94 1272.21 824.94
  C 1244.11 985.24 1140.28 1133.42 996.96 1211.04
  Q 926.93 1248.98 849.82 1267.60
  C 780.56 1284.33 708.31 1286.17 638.03 1275.39
  C 520.29 1257.34 412.88 1202.30 328.66 1118.34
  Z
  M 933.44 387.56
  Q 986.61 438.70 1031.49 502.75
  Q 1031.79 503.17 1031.36 503.47
  Q 1004.51 522.22 982.63 546.57
  A 0.69 0.68 -41.1 0 1 981.55 546.50
  C 968.03 526.58 953.17 507.53 936.83 489.80
  Q 877.45 425.37 810.60 368.65
  Q 782.46 344.77 743.57 312.68
  Q 704.63 280.55 669.42 242.08
  Q 668.02 240.55 666.50 240.75
  C 532.59 257.89 413.61 325.76 332.15 434.39
  Q 323.47 445.97 316.06 458.86
  A 0.40 0.40 0.0 0 0 316.39 459.46
  C 350.82 460.27 385.10 455.39 418.52 447.40
  Q 432.22 444.13 442.01 438.27
  Q 469.23 422.00 496.72 406.20
  C 541.19 380.63 589.02 361.45 638.26 347.29
  Q 647.12 344.74 656.27 343.12
  Q 656.86 343.01 656.67 343.58
  C 655.63 346.68 653.72 348.89 653.98 352.74
  Q 654.10 354.46 654.87 357.79
  Q 660.68 382.65 666.48 407.84
  A 0.64 0.63 74.7 0 1 666.07 408.58
  C 613.85 426.38 562.69 447.02 517.31 473.07
  Q 500.41 482.77 483.41 492.31
  C 445.82 513.40 404.79 523.55 362.00 526.72
  C 333.99 528.79 306.20 528.34 278.45 527.89
  Q 277.64 527.88 277.33 528.62
  Q 227.47 650.55 241.15 780.67
  C 246.04 827.22 258.42 872.93 276.16 916.20
  Q 276.39 916.76 276.80 916.32
  C 300.14 891.63 323.44 865.78 329.74 831.00
  Q 332.33 816.65 334.79 786.31
  Q 337.63 751.32 340.55 716.34
  C 343.42 681.98 349.91 648.29 361.10 615.59
  A 0.54 0.53 18.6 0 1 361.78 615.26
  Q 391.45 625.03 421.63 633.11
  Q 422.09 633.23 422.00 633.70
  C 415.75 665.23 411.10 697.21 408.87 729.29
  C 405.46 778.30 405.02 827.87 385.96 873.48
  Q 384.61 876.71 383.77 877.52
  Q 368.73 892.01 351.78 904.12
  C 331.91 918.29 311.40 931.57 290.02 943.82
  Q 289.87 943.90 289.94 944.05
  L 296.08 958.41
  A 1.47 1.46 60.2 0 0 298.30 959.02
  Q 348.57 922.00 398.42 883.70
  Q 405.51 878.25 412.87 874.63
  Q 414.32 873.91 415.44 875.08
  C 427.78 888.04 439.23 901.01 453.74 912.25
  C 461.36 918.15 456.60 926.55 450.47 931.20
  Q 393.38 974.51 336.52 1017.53
  A 0.76 0.76 0.0 0 0 336.37 1018.60
  Q 429.09 1140.45 574.30 1188.68
  C 583.53 1191.74 592.62 1194.11 602.04 1196.33
  A 0.82 0.81 -89.1 0 0 603.02 1195.37
  C 597.38 1167.74 587.84 1140.61 569.98 1118.37
  Q 565.38 1112.64 556.46 1103.64
  C 535.63 1082.63 513.50 1062.92 491.77 1042.86
  C 466.54 1019.56 444.82 992.89 422.37 967.03
  Q 422.07 966.69 422.46 966.45
  C 434.12 959.39 449.84 952.49 463.52 951.79
  C 492.17 950.33 527.33 980.84 546.04 999.72
  Q 562.03 1015.86 601.68 1051.95
  Q 611.45 1060.85 616.07 1065.82
  C 652.45 1104.91 668.29 1156.25 676.53 1207.91
  Q 676.60 1208.34 677.02 1208.46
  L 686.75 1211.05
  A 0.90 0.90 0.0 0 0 687.84 1210.44
  Q 693.36 1192.15 701.50 1174.60
  C 723.05 1128.17 750.67 1084.59 793.85 1055.39
  Q 808.08 1045.77 822.95 1037.20
  Q 870.37 1009.87 919.76 986.32
  C 932.29 980.34 994.82 951.40 1006.03 958.96
  C 1025.44 972.06 1050.04 989.89 1074.52 1008.39
  Q 1075.22 1008.92 1074.35 1009.05
  Q 1064.19 1010.60 1054.02 1012.14
  C 1009.12 1018.92 962.66 1040.35 918.63 1063.58
  Q 889.25 1079.07 859.98 1094.77
  C 841.35 1104.77 824.64 1116.37 810.31 1132.07
  C 790.93 1153.32 775.31 1181.10 763.41 1208.03
  A 0.96 0.96 0.0 0 0 764.38 1209.37
  C 873.24 1199.29 979.32 1155.27 1057.98 1078.99
  Q 1086.00 1051.82 1111.77 1020.77
  A 1.06 1.05 -52.2 0 0 1111.58 1019.24
  L 981.72 925.26
  A 0.55 0.55 0.0 0 1 981.66 924.43
  Q 1004.57 901.69 1024.47 876.27
  A 1.87 1.86 -57.7 0 1 1026.77 875.75
  Q 1031.97 878.36 1037.10 881.89
  Q 1093.02 920.39 1149.21 959.88
  A 0.42 0.42 0.0 0 0 1149.82 959.74
  C 1221.50 830.81 1228.73 671.20 1172.32 535.12
  A 0.40 0.40 0.0 0 0 1171.61 535.06
  C 1135.67 590.43 1107.83 650.21 1106.86 717.56
  Q 1106.61 735.10 1106.21 791.11
  C 1106.09 808.96 1104.80 826.70 1096.64 842.93
  C 1089.19 857.76 1074.72 872.73 1062.51 884.26
  A 0.95 0.94 38.0 0 1 1061.38 884.39
  L 1048.59 877.00
  Q 1048.09 876.71 1047.59 877.00
  L 1042.11 880.18
  A 0.13 0.13 0.0 0 1 1041.91 880.07
  C 1041.08 843.03 1038.43 807.40 1036.62 771.01
  C 1035.21 742.52 1036.15 713.32 1039.45 685.00
  C 1046.87 621.13 1071.65 560.39 1106.52 505.54
  Q 1120.16 484.08 1134.05 462.62
  Q 1134.33 462.19 1134.04 461.76
  Q 1121.19 442.29 1108.78 425.72
  C 1026.93 316.50 900.69 253.39 766.58 237.73
  Q 765.71 237.63 766.16 238.38
  Q 766.32 238.63 766.58 239.10
  Q 766.78 239.48 767.10 239.75
  C 823.48 288.20 880.71 336.86 933.44 387.56
  Z"
/>
<path fill="#ffffff" d="
  M 933.44 387.56
  C 880.71 336.86 823.48 288.20 767.10 239.75
  Q 766.78 239.48 766.58 239.10
  Q 766.32 238.63 766.16 238.38
  Q 765.71 237.63 766.58 237.73
  C 900.69 253.39 1026.93 316.50 1108.78 425.72
  Q 1121.19 442.29 1134.04 461.76
  Q 1134.33 462.19 1134.05 462.62
  Q 1120.16 484.08 1106.52 505.54
  C 1071.65 560.39 1046.87 621.13 1039.45 685.00
  C 1036.15 713.32 1035.21 742.52 1036.62 771.01
  C 1038.43 807.40 1041.08 843.03 1041.91 880.07
  A 0.13 0.13 0.0 0 0 1042.11 880.18
  L 1047.59 877.00
  Q 1048.09 876.71 1048.59 877.00
  L 1061.38 884.39
  A 0.95 0.94 38.0 0 0 1062.51 884.26
  C 1074.72 872.73 1089.19 857.76 1096.64 842.93
  C 1104.80 826.70 1106.09 808.96 1106.21 791.11
  Q 1106.61 735.10 1106.86 717.56
  C 1107.83 650.21 1135.67 590.43 1171.61 535.06
  A 0.40 0.40 0.0 0 1 1172.32 535.12
  C 1228.73 671.20 1221.50 830.81 1149.82 959.74
  A 0.42 0.42 0.0 0 1 1149.21 959.88
  Q 1093.02 920.39 1037.10 881.89
  Q 1031.97 878.36 1026.77 875.75
  A 1.87 1.86 -57.7 0 0 1024.47 876.27
  Q 1004.57 901.69 981.66 924.43
  A 0.55 0.55 0.0 0 0 981.72 925.26
  L 1111.58 1019.24
  A 1.06 1.05 -52.2 0 1 1111.77 1020.77
  Q 1086.00 1051.82 1057.98 1078.99
  C 979.32 1155.27 873.24 1199.29 764.38 1209.37
  A 0.96 0.96 0.0 0 1 763.41 1208.03
  C 775.31 1181.10 790.93 1153.32 810.31 1132.07
  C 824.64 1116.37 841.35 1104.77 859.98 1094.77
  Q 889.25 1079.07 918.63 1063.58
  C 962.66 1040.35 1009.12 1018.92 1054.02 1012.14
  Q 1064.19 1010.60 1074.35 1009.05
  Q 1075.22 1008.92 1074.52 1008.39
  C 1050.04 989.89 1025.44 972.06 1006.03 958.96
  C 994.82 951.40 932.29 980.34 919.76 986.32
  Q 870.37 1009.87 822.95 1037.20
  Q 808.08 1045.77 793.85 1055.39
  C 750.67 1084.59 723.05 1128.17 701.50 1174.60
  Q 693.36 1192.15 687.84 1210.44
  A 0.90 0.90 0.0 0 1 686.75 1211.05
  L 677.02 1208.46
  Q 676.60 1208.34 676.53 1207.91
  C 668.29 1156.25 652.45 1104.91 616.07 1065.82
  Q 611.45 1060.85 601.68 1051.95
  Q 562.03 1015.86 546.04 999.72
  C 527.33 980.84 492.17 950.33 463.52 951.79
  C 449.84 952.49 434.12 959.39 422.46 966.45
  Q 422.07 966.69 422.37 967.03
  C 444.82 992.89 466.54 1019.56 491.77 1042.86
  C 513.50 1062.92 535.63 1082.63 556.46 1103.64
  Q 565.38 1112.64 569.98 1118.37
  C 587.84 1140.61 597.38 1167.74 603.02 1195.37
  A 0.82 0.81 -89.1 0 1 602.04 1196.33
  C 592.62 1194.11 583.53 1191.74 574.30 1188.68
  Q 429.09 1140.45 336.37 1018.60
  A 0.76 0.76 0.0 0 1 336.52 1017.53
  Q 393.38 974.51 450.47 931.20
  C 456.60 926.55 461.36 918.15 453.74 912.25
  C 439.23 901.01 427.78 888.04 415.44 875.08
  Q 414.32 873.91 412.87 874.63
  Q 405.51 878.25 398.42 883.70
  Q 348.57 922.00 298.30 959.02
  A 1.47 1.46 60.2 0 1 296.08 958.41
  L 289.94 944.05
  Q 289.87 943.90 290.02 943.82
  C 311.40 931.57 331.91 918.29 351.78 904.12
  Q 368.73 892.01 383.77 877.52
  Q 384.61 876.71 385.96 873.48
  C 405.02 827.87 405.46 778.30 408.87 729.29
  C 411.10 697.21 415.75 665.23 422.00 633.70
  Q 422.09 633.23 421.63 633.11
  Q 391.45 625.03 361.78 615.26
  A 0.54 0.53 18.6 0 0 361.10 615.59
  C 349.91 648.29 343.42 681.98 340.55 716.34
  Q 337.63 751.32 334.79 786.31
  Q 332.33 816.65 329.74 831.00
  C 323.44 865.78 300.14 891.63 276.80 916.32
  Q 276.39 916.76 276.16 916.20
  C 258.42 872.93 246.04 827.22 241.15 780.67
  Q 227.47 650.55 277.33 528.62
  Q 277.64 527.88 278.45 527.89
  C 306.20 528.34 333.99 528.79 362.00 526.72
  C 404.79 523.55 445.82 513.40 483.41 492.31
  Q 500.41 482.77 517.31 473.07
  C 562.69 447.02 613.85 426.38 666.07 408.58
  A 0.64 0.63 74.7 0 0 666.48 407.84
  Q 660.68 382.65 654.87 357.79
  Q 654.10 354.46 653.98 352.74
  C 653.72 348.89 655.63 346.68 656.67 343.58
  Q 656.86 343.01 656.27 343.12
  Q 647.12 344.74 638.26 347.29
  C 589.02 361.45 541.19 380.63 496.72 406.20
  Q 469.23 422.00 442.01 438.27
  Q 432.22 444.13 418.52 447.40
  C 385.10 455.39 350.82 460.27 316.39 459.46
  A 0.40 0.40 0.0 0 1 316.06 458.86
  Q 323.47 445.97 332.15 434.39
  C 413.61 325.76 532.59 257.89 666.50 240.75
  Q 668.02 240.55 669.42 242.08
  Q 704.63 280.55 743.57 312.68
  Q 782.46 344.77 810.60 368.65
  Q 877.45 425.37 936.83 489.80
  C 953.17 507.53 968.03 526.58 981.55 546.50
  A 0.69 0.68 -41.1 0 0 982.63 546.57
  Q 1004.51 522.22 1031.36 503.47
  Q 1031.79 503.17 1031.49 502.75
  Q 986.61 438.70 933.44 387.56
  Z
  M 653.27 902.56
  L 631.21 924.69
  A 0.34 0.33 68.6 0 1 630.64 924.44
  C 631.91 880.72 631.74 838.62 631.12 774.89
  Q 631.11 774.41 630.64 774.48
  Q 628.26 774.83 626.45 776.45
  Q 600.93 799.33 575.18 821.78
  A 1.17 1.16 -26.4 0 0 574.80 822.90
  Q 578.69 841.99 581.03 861.50
  Q 589.67 933.21 590.42 1007.29
  Q 590.43 1008.18 591.12 1007.62
  L 720.71 903.82
  A 1.23 1.22 -44.8 0 1 722.24 903.82
  L 849.99 1006.47
  A 0.35 0.34 20.4 0 0 850.55 1006.22
  C 852.05 945.05 856.80 884.12 866.87 823.74
  C 867.07 822.54 866.89 821.75 866.00 820.98
  Q 839.00 797.50 813.28 772.85
  A 0.64 0.63 22.0 0 0 812.20 773.30
  L 811.43 918.14
  Q 811.43 918.67 810.92 918.81
  Q 808.15 919.57 806.17 918.34
  C 802.89 916.32 790.19 906.97 789.91 902.19
  C 789.63 897.47 789.16 892.56 789.14 887.92
  Q 788.89 813.34 788.91 738.71
  A 1.50 1.50 0.0 0 1 789.21 737.81
  Q 810.49 710.35 830.96 682.29
  C 832.63 680.01 833.95 677.21 835.40 674.66
  Q 835.67 674.19 836.16 674.43
  C 892.40 701.73 937.41 719.37 1006.95 748.28
  Q 1013.53 751.01 1017.93 752.27
  Q 1018.86 752.54 1018.28 751.77
  Q 1002.73 731.28 986.44 714.56
  Q 938.68 665.56 904.81 629.69
  Q 899.23 623.78 883.78 608.97
  A 1.09 1.09 0.0 0 1 883.45 608.19
  L 884.32 487.51
  Q 884.33 486.77 883.73 487.22
  Q 866.10 500.52 854.70 507.70
  C 803.95 539.72 766.71 563.43 724.14 593.37
  A 0.88 0.87 -46.0 0 1 723.15 593.39
  L 560.60 487.25
  Q 559.94 486.82 559.94 487.60
  L 559.47 609.85
  Q 559.47 610.32 559.13 610.65
  C 514.67 655.10 471.28 700.61 427.24 745.49
  C 426.23 746.52 424.44 748.16 424.15 749.80
  C 423.76 751.97 426.08 753.32 428.01 752.51
  Q 518.25 714.55 608.46 676.56
  A 0.34 0.33 60.4 0 1 608.86 676.68
  L 653.46 738.12
  A 2.83 2.81 -63.2 0 1 654.00 739.78
  L 654.00 900.78
  Q 654.00 901.82 653.27 902.56
  Z"
/>
<path fill="#620065" d="
  M 653.27 902.56
  Q 654.00 901.82 654.00 900.78
  L 654.00 739.78
  A 2.83 2.81 -63.2 0 0 653.46 738.12
  L 608.86 676.68
  A 0.34 0.33 60.4 0 0 608.46 676.56
  Q 518.25 714.55 428.01 752.51
  C 426.08 753.32 423.76 751.97 424.15 749.80
  C 424.44 748.16 426.23 746.52 427.24 745.49
  C 471.28 700.61 514.67 655.10 559.13 610.65
  Q 559.47 610.32 559.47 609.85
  L 559.94 487.60
  Q 559.94 486.82 560.60 487.25
  L 723.15 593.39
  A 0.88 0.87 -46.0 0 0 724.14 593.37
  C 766.71 563.43 803.95 539.72 854.70 507.70
  Q 866.10 500.52 883.73 487.22
  Q 884.33 486.77 884.32 487.51
  L 883.45 608.19
  A 1.09 1.09 0.0 0 0 883.78 608.97
  Q 899.23 623.78 904.81 629.69
  Q 938.68 665.56 986.44 714.56
  Q 1002.73 731.28 1018.28 751.77
  Q 1018.86 752.54 1017.93 752.27
  Q 1013.53 751.01 1006.95 748.28
  C 937.41 719.37 892.40 701.73 836.16 674.43
  Q 835.67 674.19 835.40 674.66
  C 833.95 677.21 832.63 680.01 830.96 682.29
  Q 810.49 710.35 789.21 737.81
  A 1.50 1.50 0.0 0 0 788.91 738.71
  Q 788.89 813.34 789.14 887.92
  C 789.16 892.56 789.63 897.47 789.91 902.19
  C 790.19 906.97 802.89 916.32 806.17 918.34
  Q 808.15 919.57 810.92 918.81
  Q 811.43 918.67 811.43 918.14
  L 812.20 773.30
  A 0.64 0.63 22.0 0 1 813.28 772.85
  Q 839.00 797.50 866.00 820.98
  C 866.89 821.75 867.07 822.54 866.87 823.74
  C 856.80 884.12 852.05 945.05 850.55 1006.22
  A 0.35 0.34 20.4 0 1 849.99 1006.47
  L 722.24 903.82
  A 1.23 1.22 -44.8 0 0 720.71 903.82
  L 591.12 1007.62
  Q 590.43 1008.18 590.42 1007.29
  Q 589.67 933.21 581.03 861.50
  Q 578.69 841.99 574.80 822.90
  A 1.17 1.16 -26.4 0 1 575.18 821.78
  Q 600.93 799.33 626.45 776.45
  Q 628.26 774.83 630.64 774.48
  Q 631.11 774.41 631.12 774.89
  C 631.74 838.62 631.91 880.72 630.64 924.44
  A 0.34 0.33 68.6 0 0 631.21 924.69
  L 653.27 902.56
  Z
  M 639.19 599.56
  Q 681.92 637.30 722.91 668.98
  Q 723.34 669.31 723.75 668.96
  Q 758.32 639.82 792.58 610.33
  Q 802.17 602.07 810.91 592.91
  Q 811.36 592.43 811.29 592.17
  A 0.73 0.73 0.0 0 0 810.26 591.70
  C 779.35 606.96 751.16 626.24 723.56 646.56
  A 1.14 1.14 0.0 0 1 722.19 646.55
  Q 679.20 614.21 634.44 584.36
  A 1.12 1.11 32.5 0 0 632.87 584.70
  L 630.07 589.27
  Q 629.81 589.70 630.12 590.09
  Q 633.67 594.69 639.19 599.56
  Z"
/>
<path fill="#ffffff" d="
  M 639.19 599.56
  Q 633.67 594.69 630.12 590.09
  Q 629.81 589.70 630.07 589.27
  L 632.87 584.70
  A 1.12 1.11 32.5 0 1 634.44 584.36
  Q 679.20 614.21 722.19 646.55
  A 1.14 1.14 0.0 0 0 723.56 646.56
  C 751.16 626.24 779.35 606.96 810.26 591.70
  A 0.73 0.73 0.0 0 1 811.29 592.17
  Q 811.36 592.43 810.91 592.91
  Q 802.17 602.07 792.58 610.33
  Q 758.32 639.82 723.75 668.96
  Q 723.34 669.31 722.91 668.98
  Q 681.92 637.30 639.19 599.56
  Z"
/>
</svg>
